<svg height="512pt" viewBox="0 -66 512.00175 512" width="512pt" xmlns="http://www.w3.org/2000/svg"><path d="m386 270.351562c0 5.523438-4.476562 10-10 10s-10-4.476562-10-10c0-5.523437 4.476562-10 10-10s10 4.476563 10 10zm0 0"/><path d="m326 270.351562c0 5.523438-4.476562 10-10 10s-10-4.476562-10-10c0-5.523437 4.476562-10 10-10s10 4.476563 10 10zm0 0"/><path d="m266 270.351562c0 5.523438-4.476562 10-10 10s-10-4.476562-10-10c0-5.523437 4.476562-10 10-10s10 4.476563 10 10zm0 0"/><path d="m206 270.351562c0 5.523438-4.476562 10-10 10s-10-4.476562-10-10c0-5.523437 4.476562-10 10-10s10 4.476563 10 10zm0 0"/><path d="m146 270.351562c0 5.523438-4.476562 10-10 10s-10-4.476562-10-10c0-5.523437 4.476562-10 10-10s10 4.476563 10 10zm0 0"/><path d="m502 360.351562c-9.332031 0-17.90625-4.335937-26.988281-8.925781-6.414063-3.238281-13.359375-6.75-21.105469-8.933593l57.097656-118.140626c1.5-3.097656 1.296875-6.75-.53125-9.664062-1.828125-2.917969-5.027344-4.6875-8.46875-4.6875h-56v-50c0-5.523438-4.480468-10-10-10-5.523437 0-10 4.476562-10 10v50h-14.339844l-82.683593-137.808594c-2.84375-4.734375-8.984375-6.269531-13.71875-3.429687-4.738281 2.84375-6.273438 8.984375-3.433594 13.722656l22.511719 37.515625h-98.339844v-41.335938c2.988281-1.730468 5-4.960937 5-8.664062 0-5.523438-4.476562-10-10-10h-5c-5.523438 0-10 4.476562-10 10v50h-40v-110c0-5.523438-4.476562-10-10-10h-60c-5.523438 0-10 4.476562-10 10v110h-20c-5.523438 0-10 4.476562-10 10v80h-56c-3.171875 0-6.15625 1.507812-8.039062 4.058594-1.8867192 2.550781-2.449219 5.84375-1.519532 8.875l41.878906 126.703125c-1.195312.554687-2.382812 1.109375-3.554687 1.660156-9.914063 4.65625-19.277344 9.054687-28.765625 9.054687-5.523438 0-10 4.476563-10 10 0 5.523438 4.476562 10 10 10 18.597656 0 33.574219-9.941406 48.246094-15.871093 7.042968-2.855469 12.519531-4.128907 17.753906-4.128907 9.160156 0 16.59375 4.066407 25.203125 8.773438 9.621094 5.261719 20.527344 11.226562 34.796875 11.226562s25.175781-5.964843 34.796875-11.226562c8.609375-4.710938 16.042969-8.773438 25.203125-8.773438s16.59375 4.066407 25.203125 8.773438c9.621094 5.261719 20.527344 11.226562 34.796875 11.226562s25.175781-5.964843 34.796875-11.226562c8.609375-4.710938 16.042969-8.773438 25.203125-8.773438s16.59375 4.066407 25.203125 8.773438c9.621094 5.261719 20.527344 11.226562 34.796875 11.226562 14.097656 0 25.738281-5.882812 36.011719-11.074218 9.082031-4.589844 17.65625-8.925782 26.988281-8.925782s17.910156 4.335938 26.988281 8.925782c10.273438 5.191406 21.914063 11.074218 36.011719 11.074218 5.523438 0 10-4.476562 10-10 0-5.523437-4.476562-10-10-10zm-386-340.351562h40v100h-40zm-30 120h260.339844l42 70h-62.339844v-20c0-5.519531-4.476562-10-10-10s-10 4.480469-10 10v20h-40v-20c0-5.519531-4.476562-10-10-10s-10 4.480469-10 10v20h-40v-20c0-5.519531-4.476562-10-10-10s-10 4.480469-10 10v20h-100zm316.988281 211.425781c-9.078125 4.589844-17.65625 8.925781-26.988281 8.925781-9.15625 0-16.59375-4.066406-25.199219-8.773437-9.625-5.261719-20.527343-11.226563-34.800781-11.226563-14.269531 0-25.175781 5.964844-34.796875 11.226563-8.609375 4.707031-16.042969 8.773437-25.203125 8.773437-9.15625 0-16.59375-4.066406-25.199219-8.773437-9.625-5.261719-20.527343-11.226563-34.800781-11.226563-14.269531 0-25.175781 5.964844-34.796875 11.226563-21.316406 11.660156-28.664063 11.890625-50.402344 0-9.621093-5.261719-20.527343-11.226563-34.796875-11.226563-5.425781 0-10.507812.890626-14.972656 2.085938l-37.5-112.4375h462.53125l-53.542969 110.777344c-11.246093 1.425781-20.878906 6.277344-29.53125 10.648437zm0 0"/><path d="m286 70c0 5.523438-4.476562 10-10 10s-10-4.476562-10-10c0-5.519531 4.476562-10 10-10s10 4.480469 10 10zm0 0"/></svg>